<svg xmlns="http://www.w3.org/2000/svg" viewBox="0 0 980 660" role="img" aria-labelledby="title desc">
  <title id="title">Higher Drones aerial marketplace preview</title>
  <desc id="desc">Illustrated premium drone videography marketplace with portfolio cards, service notes, and project planning cues.</desc>
  <defs>
    <linearGradient id="sky" x1="0" y1="0" x2="1" y2="1">
      <stop offset="0" stop-color="#dff3ff"/>
      <stop offset=".52" stop-color="#f7fcff"/>
      <stop offset="1" stop-color="#d7edf1"/>
    </linearGradient>
    <linearGradient id="deep" x1="0" y1="0" x2="1" y2="1">
      <stop offset="0" stop-color="#062b43"/>
      <stop offset="1" stop-color="#128074"/>
    </linearGradient>
    <filter id="shadow" x="-20%" y="-20%" width="140%" height="150%">
      <feDropShadow dx="0" dy="24" stdDeviation="22" flood-color="#062b43" flood-opacity=".18"/>
    </filter>
  </defs>
  <rect width="980" height="660" rx="38" fill="url(#sky)"/>
  <path d="M0 462c150-64 242-48 366-92 128-45 224-118 374-94 98 16 172 70 240 105v279H0z" fill="#b5d6df"/>
  <path d="M0 515c121-34 218-30 341-69 159-50 238-95 386-56 96 25 160 71 253 91v179H0z" fill="#0a4058" opacity=".88"/>
  <path d="M110 490c108-56 182-38 280-76 93-36 140-93 258-78 70 9 123 47 170 79" fill="none" stroke="#ffffff" stroke-width="3" stroke-dasharray="9 12" opacity=".62"/>
  <g transform="translate(66 76)" filter="url(#shadow)">
    <rect width="500" height="430" rx="30" fill="#fff"/>
    <rect x="28" y="28" width="444" height="238" rx="24" fill="#d7ebf5"/>
    <path d="M28 216c68-54 127-54 185-25 82 41 128 13 195-33 36-25 54-32 64-36v144H28z" fill="#85b7c7"/>
    <path d="M28 248c105-43 163-38 236-16 81 25 137 10 208-18v52H28z" fill="#0d4f6b"/>
    <circle cx="390" cy="74" r="24" fill="#fff" opacity=".85"/>
    <path d="M91 117h82m42 0h82" stroke="#062b43" stroke-width="7" stroke-linecap="round"/>
    <circle cx="194" cy="117" r="18" fill="#062b43"/>
    <path d="M185 117h18m-9-9v18" stroke="#fff" stroke-width="5" stroke-linecap="round"/>
    <rect x="52" y="52" width="116" height="36" rx="18" fill="#fff"/>
    <text x="110" y="75" text-anchor="middle" font-family="Inter, Arial, sans-serif" font-size="15" font-weight="900" fill="#062b43">Portfolio</text>
    <text x="32" y="320" font-family="Inter, Arial, sans-serif" font-size="28" font-weight="900" fill="#062b43">Cinematic aerial project</text>
    <text x="32" y="354" font-family="Inter, Arial, sans-serif" font-size="17" fill="#607989">Real estate • events • commercial visuals</text>
    <g transform="translate(32 388)">
      <rect width="116" height="34" rx="17" fill="#e6f5f4"/>
      <text x="58" y="22" text-anchor="middle" font-family="Inter, Arial, sans-serif" font-size="13" font-weight="900" fill="#0c645d">Video</text>
      <rect x="128" width="124" height="34" rx="17" fill="#eff7fb"/>
      <text x="190" y="22" text-anchor="middle" font-family="Inter, Arial, sans-serif" font-size="13" font-weight="900" fill="#0b4c6a">Photo</text>
      <rect x="264" width="146" height="34" rx="17" fill="#fff3e9"/>
      <text x="337" y="22" text-anchor="middle" font-family="Inter, Arial, sans-serif" font-size="13" font-weight="900" fill="#aa5f2d">Custom scope</text>
    </g>
  </g>
  <g transform="translate(608 104)" filter="url(#shadow)">
    <rect width="300" height="146" rx="26" fill="#fff"/>
    <text x="26" y="43" font-family="Inter, Arial, sans-serif" font-size="19" font-weight="900" fill="#062b43">Pilot profiles</text>
    <text x="26" y="73" font-family="Inter, Arial, sans-serif" font-size="13" fill="#607989">Portfolio, style, project fit, and planning notes.</text>
    <circle cx="52" cy="111" r="18" fill="#128074"/>
    <circle cx="101" cy="111" r="18" fill="#0c5d86"/>
    <circle cx="150" cy="111" r="18" fill="#e77f42"/>
    <rect x="190" y="101" width="74" height="18" rx="9" fill="#d7e7ec"/>
  </g>
  <g transform="translate(608 286)" filter="url(#shadow)">
    <rect width="300" height="188" rx="26" fill="#062b43"/>
    <text x="26" y="44" font-family="Inter, Arial, sans-serif" font-size="19" font-weight="900" fill="#fff">Project planner</text>
    <text x="26" y="74" font-family="Inter, Arial, sans-serif" font-size="13" fill="#bfdae1">Creative goals, location context, timing, and deliverables.</text>
    <g fill="none" stroke="#67d3c7" stroke-width="5" stroke-linecap="round" stroke-linejoin="round">
      <path d="M33 116l12 12 25-34"/>
      <path d="M33 153l12 12 25-34"/>
    </g>
    <rect x="96" y="106" width="138" height="12" rx="6" fill="#83aab8"/>
    <rect x="96" y="143" width="110" height="12" rx="6" fill="#83aab8"/>
  </g>
  <g transform="translate(218 536)">
    <rect width="544" height="56" rx="28" fill="#fff" opacity=".9"/>
    <text x="272" y="36" text-anchor="middle" font-family="Inter, Arial, sans-serif" font-size="16" font-weight="900" fill="#062b43">Discover pilots, compare portfolios, and plan aerial work carefully</text>
  </g>
</svg>
